<svg width="48" height="48" viewBox="0 0 48 48" xmlns="http://www.w3.org/2000/svg" xmlns:xlink="http://www.w3.org/1999/xlink"><defs><linearGradient x1="50%" y1="-9.288%" x2="50%" y2="81.278%" id="a"><stop stop-color="#68C2FF" offset="0%"/><stop stop-color="#4687FF" offset="100%"/></linearGradient><linearGradient x1="50%" y1="100%" x2="50%" y2="0%" id="d"><stop stop-color="#FFF" stop-opacity=".7" offset="0%"/><stop stop-color="#FFF" offset="100%"/></linearGradient><path d="M10.12 34.071C8.068 31.223 6.857 27.79 6.857 24A17.095 17.095 0 0 1 24 6.857c9.468 0 17.143 7.6 17.143 17.143 0 3.79-1.21 7.223-3.263 10.071l-8.201-13.285-.857 1.393.857 3.75L24 16.179l-3.429 5.892.75 3.75-3-5.035L10.12 34.07z" id="c"/><filter x="-5.8%" y="-3.7%" width="111.7%" height="114.7%" filterUnits="objectBoundingBox" id="b"><feOffset dy="1" in="SourceAlpha" result="shadowOffsetOuter1"/><feGaussianBlur stdDeviation=".5" in="shadowOffsetOuter1" result="shadowBlurOuter1"/><feColorMatrix values="0 0 0 0 0 0 0 0 0 0 0 0 0 0 0 0 0 0 0.15073208 0" in="shadowBlurOuter1"/></filter><filter x="-4.4%" y="-1.8%" width="108.8%" height="111%" filterUnits="objectBoundingBox" id="e"><feGaussianBlur stdDeviation=".5" in="SourceAlpha" result="shadowBlurInner1"/><feOffset in="shadowBlurInner1" result="shadowOffsetInner1"/><feComposite in="shadowOffsetInner1" in2="SourceAlpha" operator="arithmetic" k2="-1" k3="1" result="shadowInnerInner1"/><feColorMatrix values="0 0 0 0 1 0 0 0 0 1 0 0 0 0 1 0 0 0 0.3 0" in="shadowInnerInner1"/></filter></defs><g fill="none" fill-rule="evenodd"><circle fill="url(#a)" cx="24" cy="24" r="24"/><use fill="#000" filter="url(#b)" xlink:href="#c"/><use fill="url(#d)" xlink:href="#c"/><use fill="#000" filter="url(#e)" xlink:href="#c"/></g></svg>